<?xml version="1.0" encoding="UTF-8" standalone="no"?>
<!DOCTYPE svg PUBLIC "-//W3C//DTD SVG 1.1//EN"
 "http://www.w3.org/Graphics/SVG/1.1/DTD/svg11.dtd">
<!-- Generated by graphviz version 14.0.5 (20251129.0259)
 -->
<!-- Title: RethinkDBHierarchy Pages: 1 -->
<svg width="1651pt" height="788pt"
 viewBox="0.00 0.00 1651.00 788.00" xmlns="http://www.w3.org/2000/svg" xmlns:xlink="http://www.w3.org/1999/xlink">
<g id="graph0" class="graph" transform="scale(1 1) rotate(0) translate(4 783.75)">
<title>RethinkDBHierarchy</title>
<polygon fill="white" stroke="none" points="-4,4 -4,-783.75 1647,-783.75 1647,4 -4,4"/>
<text xml:space="preserve" text-anchor="start" x="679.75" y="-763.45" font-family="Times,serif" font-weight="bold" font-size="14.00">RethinkDB 3.0 Database Hierarchy Architecture</text>
<g id="clust1" class="cluster">
<title>cluster_storage</title>
<polygon fill="lightgrey" stroke="lightgrey" points="8,-8 8,-128.5 972,-128.5 972,-8 8,-8"/>
<text xml:space="preserve" text-anchor="middle" x="490" y="-111.2" font-family="Times,serif" font-size="14.00">Storage Layer (Sled B&#45;Tree)</text>
</g>
<g id="clust2" class="cluster">
<title>cluster_metadata</title>
<polygon fill="white" stroke="white" points="16,-16 16,-96 630,-96 630,-16 16,-16"/>
<text xml:space="preserve" text-anchor="middle" x="323" y="-78.7" font-family="Times,serif" font-size="14.00">Metadata Trees</text>
</g>
<g id="clust3" class="cluster">
<title>cluster_documents</title>
<polygon fill="white" stroke="white" points="638,-16 638,-96 964,-96 964,-16 638,-16"/>
<text xml:space="preserve" text-anchor="middle" x="801" y="-78.7" font-family="Times,serif" font-size="14.00">Document Trees</text>
</g>
<g id="clust4" class="cluster">
<title>cluster_types</title>
<polygon fill="lightblue" stroke="lightblue" points="230,-156.25 230,-620.25 628,-620.25 628,-156.25 230,-156.25"/>
<text xml:space="preserve" text-anchor="middle" x="429" y="-602.95" font-family="Times,serif" font-size="14.00">Rust Data Structures</text>
</g>
<g id="clust5" class="cluster">
<title>cluster_api</title>
<polygon fill="lightgreen" stroke="lightgreen" points="172,-658.88 172,-736.38 1091,-736.38 1091,-658.88 172,-658.88"/>
<text xml:space="preserve" text-anchor="middle" x="631.5" y="-719.08" font-family="Times,serif" font-size="14.00">HTTP REST API</text>
</g>
<g id="clust6" class="cluster">
<title>cluster_example</title>
<polygon fill="lightyellow" stroke="lightyellow" points="1099,-317 1099,-747.25 1433,-747.25 1433,-317 1099,-317"/>
<text xml:space="preserve" text-anchor="middle" x="1266" y="-729.95" font-family="Times,serif" font-size="14.00">Example: test_app Database</text>
</g>
<g id="clust7" class="cluster">
<title>cluster_legend</title>
<polygon fill="white" stroke="white" points="1441,-167.12 1441,-736.38 1635,-736.38 1635,-167.12 1441,-167.12"/>
<text xml:space="preserve" text-anchor="middle" x="1538" y="-719.08" font-family="Times,serif" font-size="14.00">Legend</text>
</g>
<!-- db_meta -->
<g id="node1" class="node">
<title>db_meta</title>
<polygon fill="none" stroke="black" points="287.75,-24.5 287.75,-63 450.25,-63 450.25,-24.5 287.75,-24.5"/>
<text xml:space="preserve" text-anchor="middle" x="369" y="-49.5" font-family="Helvetica,sans-Serif" font-size="10.00">__meta__:databases</text>
<polyline fill="none" stroke="black" points="287.75,-43.75 450.25,-43.75"/>
<text xml:space="preserve" text-anchor="middle" x="307.75" y="-30.25" font-family="Helvetica,sans-Serif" font-size="10.00">name</text>
<polyline fill="none" stroke="black" points="327.75,-24.5 327.75,-43.75"/>
<text xml:space="preserve" text-anchor="middle" x="389" y="-30.25" font-family="Helvetica,sans-Serif" font-size="10.00">DatabaseConfig (JSON)</text>
</g>
<!-- db_ids -->
<g id="node2" class="node">
<title>db_ids</title>
<polygon fill="none" stroke="black" points="142.75,-24.5 142.75,-63 269.25,-63 269.25,-24.5 142.75,-24.5"/>
<text xml:space="preserve" text-anchor="middle" x="206" y="-49.5" font-family="Helvetica,sans-Serif" font-size="10.00">__meta__:database_ids</text>
<polyline fill="none" stroke="black" points="142.75,-43.75 269.25,-43.75"/>
<text xml:space="preserve" text-anchor="middle" x="163.5" y="-30.25" font-family="Helvetica,sans-Serif" font-size="10.00">UUID</text>
<polyline fill="none" stroke="black" points="184.25,-24.5 184.25,-43.75"/>
<text xml:space="preserve" text-anchor="middle" x="226.75" y="-30.25" font-family="Helvetica,sans-Serif" font-size="10.00">database_name</text>
</g>
<!-- tbl_meta -->
<g id="node3" class="node">
<title>tbl_meta</title>
<polygon fill="none" stroke="black" points="467.88,-24.5 467.88,-63 622.12,-63 622.12,-24.5 467.88,-24.5"/>
<text xml:space="preserve" text-anchor="middle" x="545" y="-49.5" font-family="Helvetica,sans-Serif" font-size="10.00">__meta__:tables</text>
<polyline fill="none" stroke="black" points="467.88,-43.75 622.12,-43.75"/>
<text xml:space="preserve" text-anchor="middle" x="493.12" y="-30.25" font-family="Helvetica,sans-Serif" font-size="10.00">db.table</text>
<polyline fill="none" stroke="black" points="518.38,-24.5 518.38,-43.75"/>
<text xml:space="preserve" text-anchor="middle" x="570.25" y="-30.25" font-family="Helvetica,sans-Serif" font-size="10.00">TableConfig (JSON)</text>
</g>
<!-- tbl_ids -->
<g id="node4" class="node">
<title>tbl_ids</title>
<polygon fill="none" stroke="black" points="23.62,-24.5 23.62,-63 124.38,-63 124.38,-24.5 23.62,-24.5"/>
<text xml:space="preserve" text-anchor="middle" x="74" y="-49.5" font-family="Helvetica,sans-Serif" font-size="10.00">__meta__:table_ids</text>
<polyline fill="none" stroke="black" points="23.62,-43.75 124.38,-43.75"/>
<text xml:space="preserve" text-anchor="middle" x="46.38" y="-30.25" font-family="Helvetica,sans-Serif" font-size="10.00">UUID</text>
<polyline fill="none" stroke="black" points="69.12,-24.5 69.12,-43.75"/>
<text xml:space="preserve" text-anchor="middle" x="96.38" y="-30.25" font-family="Helvetica,sans-Serif" font-size="10.00">db.table</text>
</g>
<!-- docs -->
<g id="node5" class="node">
<title>docs</title>
<polygon fill="none" stroke="black" points="645.88,-24.5 645.88,-63 812.12,-63 812.12,-24.5 645.88,-24.5"/>
<text xml:space="preserve" text-anchor="middle" x="729" y="-49.5" font-family="Helvetica,sans-Serif" font-size="10.00">db:UUID:table:UUID:docs</text>
<polyline fill="none" stroke="black" points="645.88,-43.75 812.12,-43.75"/>
<text xml:space="preserve" text-anchor="middle" x="680.5" y="-30.25" font-family="Helvetica,sans-Serif" font-size="10.00">primary_key</text>
<polyline fill="none" stroke="black" points="715.12,-24.5 715.12,-43.75"/>
<text xml:space="preserve" text-anchor="middle" x="763.62" y="-30.25" font-family="Helvetica,sans-Serif" font-size="10.00">Document (JSON)</text>
</g>
<!-- idx -->
<g id="node6" class="node">
<title>idx</title>
<polygon fill="none" stroke="black" points="829.75,-24.5 829.75,-63 956.25,-63 956.25,-24.5 829.75,-24.5"/>
<text xml:space="preserve" text-anchor="middle" x="893" y="-49.5" font-family="Helvetica,sans-Serif" font-size="10.00">db:UUID:table:UUID:idx</text>
<polyline fill="none" stroke="black" points="829.75,-43.75 956.25,-43.75"/>
<text xml:space="preserve" text-anchor="middle" x="873.38" y="-30.25" font-family="Helvetica,sans-Serif" font-size="10.00">index_name:key</text>
<polyline fill="none" stroke="black" points="917,-24.5 917,-43.75"/>
<text xml:space="preserve" text-anchor="middle" x="936.62" y="-30.25" font-family="Helvetica,sans-Serif" font-size="10.00">value</text>
</g>
<!-- database_id -->
<g id="node7" class="node">
<title>database_id</title>
<polygon fill="none" stroke="black" points="376.25,-498.38 376.25,-578.38 495.75,-578.38 495.75,-498.38 376.25,-498.38"/>
<text xml:space="preserve" text-anchor="middle" x="436" y="-564.88" font-family="Helvetica,sans-Serif" font-size="10.00">DatabaseId</text>
<polyline fill="none" stroke="black" points="376.25,-559.12 495.75,-559.12"/>
<text xml:space="preserve" text-anchor="middle" x="436" y="-545.62" font-family="Helvetica,sans-Serif" font-size="10.00">+ uuid: Uuid (128&#45;bit)</text>
<polyline fill="none" stroke="black" points="376.25,-539.88 495.75,-539.88"/>
<text xml:space="preserve" text-anchor="middle" x="436" y="-526.38" font-family="Helvetica,sans-Serif" font-size="10.00">+ new() → Self</text>
<polyline fill="none" stroke="black" points="376.25,-519.12 495.75,-519.12"/>
<text xml:space="preserve" text-anchor="middle" x="436" y="-505.62" font-family="Helvetica,sans-Serif" font-size="10.00">+ as_bytes() → [u8; 16]</text>
</g>
<!-- database_id&#45;&gt;db_ids -->
<g id="edge2" class="edge">
<title>database_id&#45;&gt;db_ids</title>
<path fill="none" stroke="black" stroke-dasharray="5,2" d="M417.57,-497.89C372.68,-401.75 258.52,-157.24 219.4,-73.44"/>
<polygon fill="black" stroke="black" points="222.63,-72.1 215.23,-64.52 216.29,-75.07 222.63,-72.1"/>
<text xml:space="preserve" text-anchor="middle" x="335.5" y="-247.07" font-family="Helvetica,sans-Serif" font-size="9.00">reverse lookup</text>
</g>
<!-- database_config -->
<g id="node8" class="node">
<title>database_config</title>
<polygon fill="none" stroke="black" points="514,-489.5 514,-587.25 620,-587.25 620,-489.5 514,-489.5"/>
<text xml:space="preserve" text-anchor="middle" x="567" y="-573.75" font-family="Helvetica,sans-Serif" font-size="10.00">DatabaseConfig</text>
<polyline fill="none" stroke="black" points="514,-568 620,-568"/>
<text xml:space="preserve" text-anchor="middle" x="567" y="-554.5" font-family="Helvetica,sans-Serif" font-size="10.00">+ id: DatabaseId</text>
<polyline fill="none" stroke="black" points="514,-548.75 620,-548.75"/>
<text xml:space="preserve" text-anchor="middle" x="567" y="-535.25" font-family="Helvetica,sans-Serif" font-size="10.00">+ name: String</text>
<polyline fill="none" stroke="black" points="514,-529.5 620,-529.5"/>
<text xml:space="preserve" text-anchor="middle" x="567" y="-516" font-family="Helvetica,sans-Serif" font-size="10.00">+ created_at: u64</text>
<polyline fill="none" stroke="black" points="514,-510.25 620,-510.25"/>
<text xml:space="preserve" text-anchor="middle" x="567" y="-496.75" font-family="Helvetica,sans-Serif" font-size="10.00">+ new(name) → Self</text>
</g>
<!-- database_config&#45;&gt;db_meta -->
<g id="edge1" class="edge">
<title>database_config&#45;&gt;db_meta</title>
<path fill="none" stroke="black" stroke-dasharray="5,2" d="M520.23,-489.2C505.31,-472.39 489.46,-452.86 477,-433.5 431.24,-362.38 421.2,-341.75 397.75,-260.5 379.1,-195.9 372.49,-116.87 370.19,-74.68"/>
<polygon fill="black" stroke="black" points="373.69,-74.64 369.7,-64.82 366.7,-74.98 373.69,-74.64"/>
<text xml:space="preserve" text-anchor="middle" x="415.38" y="-247.07" font-family="Helvetica,sans-Serif" font-size="9.00">stored in</text>
</g>
<!-- table_config -->
<g id="node10" class="node">
<title>table_config</title>
<polygon fill="none" stroke="black" points="486.12,-279 486.12,-433 619.88,-433 619.88,-279 486.12,-279"/>
<text xml:space="preserve" text-anchor="middle" x="553" y="-419.5" font-family="Helvetica,sans-Serif" font-size="10.00">TableConfig</text>
<polyline fill="none" stroke="black" points="486.12,-413.75 619.88,-413.75"/>
<text xml:space="preserve" text-anchor="middle" x="553" y="-400.25" font-family="Helvetica,sans-Serif" font-size="10.00">+ id: TableId</text>
<polyline fill="none" stroke="black" points="486.12,-394.5 619.88,-394.5"/>
<text xml:space="preserve" text-anchor="middle" x="553" y="-381" font-family="Helvetica,sans-Serif" font-size="10.00">+ name: String</text>
<polyline fill="none" stroke="black" points="486.12,-375.25 619.88,-375.25"/>
<text xml:space="preserve" text-anchor="middle" x="553" y="-361.75" font-family="Helvetica,sans-Serif" font-size="10.00">+ database_id: DatabaseId</text>
<polyline fill="none" stroke="black" points="486.12,-356 619.88,-356"/>
<text xml:space="preserve" text-anchor="middle" x="553" y="-342.5" font-family="Helvetica,sans-Serif" font-size="10.00">+ primary_key: String</text>
<polyline fill="none" stroke="black" points="486.12,-336.75 619.88,-336.75"/>
<text xml:space="preserve" text-anchor="middle" x="553" y="-323.25" font-family="Helvetica,sans-Serif" font-size="10.00">+ doc_count: u64</text>
<polyline fill="none" stroke="black" points="486.12,-317.5 619.88,-317.5"/>
<text xml:space="preserve" text-anchor="middle" x="553" y="-304" font-family="Helvetica,sans-Serif" font-size="10.00">+ indexes: Vec&lt;String&gt;</text>
<polyline fill="none" stroke="black" points="486.12,-298.25 619.88,-298.25"/>
<text xml:space="preserve" text-anchor="middle" x="553" y="-284.75" font-family="Helvetica,sans-Serif" font-size="10.00">+ created_at: u64</text>
</g>
<!-- database_config&#45;&gt;table_config -->
<g id="edge6" class="edge">
<title>database_config&#45;&gt;table_config</title>
<path fill="none" stroke="blue" stroke-width="2" d="M563.25,-489.04C562.22,-475.8 561.07,-461.02 559.93,-446.27"/>
<polygon fill="blue" stroke="blue" stroke-width="2" points="563.42,-446.07 559.16,-436.37 556.45,-446.62 563.42,-446.07"/>
<text xml:space="preserve" text-anchor="middle" x="582.67" y="-462.45" font-family="Helvetica,sans-Serif" font-size="9.00">1:N</text>
<text xml:space="preserve" text-anchor="middle" x="582.67" y="-452.7" font-family="Helvetica,sans-Serif" font-size="9.00">has tables</text>
</g>
<!-- table_id -->
<g id="node9" class="node">
<title>table_id</title>
<polygon fill="none" stroke="black" points="238.25,-498.38 238.25,-578.38 357.75,-578.38 357.75,-498.38 238.25,-498.38"/>
<text xml:space="preserve" text-anchor="middle" x="298" y="-564.88" font-family="Helvetica,sans-Serif" font-size="10.00">TableId</text>
<polyline fill="none" stroke="black" points="238.25,-559.12 357.75,-559.12"/>
<text xml:space="preserve" text-anchor="middle" x="298" y="-545.62" font-family="Helvetica,sans-Serif" font-size="10.00">+ uuid: Uuid (128&#45;bit)</text>
<polyline fill="none" stroke="black" points="238.25,-539.88 357.75,-539.88"/>
<text xml:space="preserve" text-anchor="middle" x="298" y="-526.38" font-family="Helvetica,sans-Serif" font-size="10.00">+ new() → Self</text>
<polyline fill="none" stroke="black" points="238.25,-519.12 357.75,-519.12"/>
<text xml:space="preserve" text-anchor="middle" x="298" y="-505.62" font-family="Helvetica,sans-Serif" font-size="10.00">+ as_bytes() → [u8; 16]</text>
</g>
<!-- table_id&#45;&gt;tbl_ids -->
<g id="edge4" class="edge">
<title>table_id&#45;&gt;tbl_ids</title>
<path fill="none" stroke="black" stroke-dasharray="5,2" d="M252.76,-498.08C244.79,-489.7 237.11,-480.5 231,-471 144.13,-335.91 96.11,-145.99 80.11,-73.97"/>
<polygon fill="black" stroke="black" points="83.61,-73.58 78.06,-64.55 76.77,-75.07 83.61,-73.58"/>
<text xml:space="preserve" text-anchor="middle" x="163.34" y="-247.07" font-family="Helvetica,sans-Serif" font-size="9.00">reverse lookup</text>
</g>
<!-- table_config&#45;&gt;tbl_meta -->
<g id="edge3" class="edge">
<title>table_config&#45;&gt;tbl_meta</title>
<path fill="none" stroke="black" stroke-dasharray="5,2" d="M485.84,-302.93C462.88,-281.02 439.92,-253.52 427.75,-223 416.76,-195.45 415.59,-183.31 427.75,-156.25 435.36,-139.31 445.4,-141.15 459,-128.5 479.33,-109.59 501.79,-87.69 518.65,-71.02"/>
<polygon fill="black" stroke="black" points="520.73,-73.89 525.37,-64.36 515.81,-68.92 520.73,-73.89"/>
<text xml:space="preserve" text-anchor="middle" x="445.38" y="-189.95" font-family="Helvetica,sans-Serif" font-size="9.00">stored in</text>
</g>
<!-- document -->
<g id="node11" class="node">
<title>document</title>
<polygon fill="none" stroke="black" points="472.38,-164.75 472.38,-222.5 619.62,-222.5 619.62,-164.75 472.38,-164.75"/>
<text xml:space="preserve" text-anchor="middle" x="546" y="-209" font-family="Helvetica,sans-Serif" font-size="10.00">Document</text>
<polyline fill="none" stroke="black" points="472.38,-203.25 619.62,-203.25"/>
<text xml:space="preserve" text-anchor="middle" x="546" y="-189.75" font-family="Helvetica,sans-Serif" font-size="10.00">JSON object with primary key</text>
<polyline fill="none" stroke="black" points="472.38,-184 619.62,-184"/>
<text xml:space="preserve" text-anchor="middle" x="546" y="-170.5" font-family="Helvetica,sans-Serif" font-size="10.00">Serialized as Vec&lt;u8&gt;</text>
</g>
<!-- table_config&#45;&gt;document -->
<g id="edge7" class="edge">
<title>table_config&#45;&gt;document</title>
<path fill="none" stroke="blue" stroke-width="2" d="M549.66,-278.57C549.02,-263.84 548.37,-248.94 547.8,-235.87"/>
<polygon fill="blue" stroke="blue" stroke-width="2" points="551.3,-235.85 547.37,-226.01 544.31,-236.15 551.3,-235.85"/>
<text xml:space="preserve" text-anchor="middle" x="580" y="-251.95" font-family="Helvetica,sans-Serif" font-size="9.00">1:N</text>
<text xml:space="preserve" text-anchor="middle" x="580" y="-242.2" font-family="Helvetica,sans-Serif" font-size="9.00">has documents</text>
</g>
<!-- document&#45;&gt;docs -->
<g id="edge5" class="edge">
<title>document&#45;&gt;docs</title>
<path fill="none" stroke="black" stroke-dasharray="5,2" d="M586.45,-164.35C601.6,-153.44 618.81,-140.68 634,-128.5 657.1,-109.97 682.18,-87.76 700.77,-70.87"/>
<polygon fill="black" stroke="black" points="702.94,-73.63 707.97,-64.3 698.22,-68.46 702.94,-73.63"/>
<text xml:space="preserve" text-anchor="middle" x="639.99" y="-137.7" font-family="Helvetica,sans-Serif" font-size="9.00">stored in</text>
</g>
<!-- api_db_list -->
<g id="node12" class="node">
<title>api_db_list</title>
<polygon fill="none" stroke="black" points="180.12,-667.38 180.12,-703.38 259.88,-703.38 259.88,-667.38 180.12,-667.38"/>
<text xml:space="preserve" text-anchor="middle" x="220" y="-687.12" font-family="Helvetica,sans-Serif" font-size="10.00">GET /api/dbs</text>
<text xml:space="preserve" text-anchor="middle" x="220" y="-675.88" font-family="Helvetica,sans-Serif" font-size="10.00">List databases</text>
</g>
<!-- api_db_list&#45;&gt;database_config -->
<g id="edge8" class="edge">
<title>api_db_list&#45;&gt;database_config</title>
<path fill="none" stroke="green" d="M246.75,-666.98C253.78,-662.94 261.5,-658.96 269,-656 319.7,-635.95 334.57,-636.31 388.5,-628.25 414.16,-624.41 482.14,-632.52 505,-620.25 515.86,-614.42 525.4,-605.77 533.54,-596.27"/>
<polygon fill="green" stroke="green" points="536.19,-598.56 539.67,-588.55 530.71,-594.21 536.19,-598.56"/>
<text xml:space="preserve" text-anchor="middle" x="402.75" y="-629.45" font-family="Helvetica,sans-Serif" font-size="9.00">returns</text>
</g>
<!-- api_db_create -->
<g id="node13" class="node">
<title>api_db_create</title>
<polygon fill="none" stroke="black" points="278,-667.38 278,-703.38 366,-703.38 366,-667.38 278,-667.38"/>
<text xml:space="preserve" text-anchor="middle" x="322" y="-687.12" font-family="Helvetica,sans-Serif" font-size="10.00">POST /api/dbs</text>
<text xml:space="preserve" text-anchor="middle" x="322" y="-675.88" font-family="Helvetica,sans-Serif" font-size="10.00">Create database</text>
</g>
<!-- api_db_create&#45;&gt;database_config -->
<g id="edge9" class="edge">
<title>api_db_create&#45;&gt;database_config</title>
<path fill="none" stroke="green" d="M352.7,-666.88C359.91,-663.07 367.64,-659.22 375,-656 409.47,-640.91 418.5,-637.42 455,-628.25 476.83,-622.76 485.67,-631.78 505,-620.25 515.35,-614.08 524.59,-605.46 532.57,-596.14"/>
<polygon fill="green" stroke="green" points="535.08,-598.6 538.59,-588.61 529.61,-594.23 535.08,-598.6"/>
<text xml:space="preserve" text-anchor="middle" x="470" y="-629.45" font-family="Helvetica,sans-Serif" font-size="9.00">creates</text>
</g>
<!-- api_db_get -->
<g id="node14" class="node">
<title>api_db_get</title>
<polygon fill="none" stroke="black" points="384.12,-667.38 384.12,-703.38 487.88,-703.38 487.88,-667.38 384.12,-667.38"/>
<text xml:space="preserve" text-anchor="middle" x="436" y="-687.12" font-family="Helvetica,sans-Serif" font-size="10.00">GET /api/dbs/:name</text>
<text xml:space="preserve" text-anchor="middle" x="436" y="-675.88" font-family="Helvetica,sans-Serif" font-size="10.00">Get database info</text>
</g>
<!-- api_db_get&#45;&gt;database_config -->
<g id="edge10" class="edge">
<title>api_db_get&#45;&gt;database_config</title>
<path fill="none" stroke="green" d="M456.48,-666.97C470.68,-654.53 489.71,-637.07 505,-620.25 511.82,-612.75 518.69,-604.56 525.25,-596.36"/>
<polygon fill="green" stroke="green" points="527.86,-598.71 531.29,-588.68 522.36,-594.38 527.86,-598.71"/>
<text xml:space="preserve" text-anchor="middle" x="507.85" y="-629.45" font-family="Helvetica,sans-Serif" font-size="9.00">reads</text>
</g>
<!-- api_db_drop -->
<g id="node15" class="node">
<title>api_db_drop</title>
<polygon fill="none" stroke="black" points="505.75,-667.38 505.75,-703.38 628.25,-703.38 628.25,-667.38 505.75,-667.38"/>
<text xml:space="preserve" text-anchor="middle" x="567" y="-687.12" font-family="Helvetica,sans-Serif" font-size="10.00">DELETE /api/dbs/:name</text>
<text xml:space="preserve" text-anchor="middle" x="567" y="-675.88" font-family="Helvetica,sans-Serif" font-size="10.00">Drop database</text>
</g>
<!-- api_db_drop&#45;&gt;database_config -->
<g id="edge11" class="edge">
<title>api_db_drop&#45;&gt;database_config</title>
<path fill="none" stroke="red" d="M567,-666.88C567,-650.04 567,-623.59 567,-599.14"/>
<polygon fill="red" stroke="red" points="570.5,-599.23 567,-589.23 563.5,-599.23 570.5,-599.23"/>
<text xml:space="preserve" text-anchor="middle" x="582" y="-629.45" font-family="Helvetica,sans-Serif" font-size="9.00">deletes</text>
</g>
<!-- api_tbl_list -->
<g id="node16" class="node">
<title>api_tbl_list</title>
<polygon fill="none" stroke="black" points="646.25,-667.38 646.25,-703.38 765.75,-703.38 765.75,-667.38 646.25,-667.38"/>
<text xml:space="preserve" text-anchor="middle" x="706" y="-687.12" font-family="Helvetica,sans-Serif" font-size="10.00">GET /api/dbs/:db/tables</text>
<text xml:space="preserve" text-anchor="middle" x="706" y="-675.88" font-family="Helvetica,sans-Serif" font-size="10.00">List tables</text>
</g>
<!-- api_tbl_list&#45;&gt;table_config -->
<g id="edge12" class="edge">
<title>api_tbl_list&#45;&gt;table_config</title>
<path fill="none" stroke="green" d="M700.07,-667.06C688.05,-632.56 659.39,-553.07 629,-489 620.81,-471.74 617.47,-468.09 608,-451.5 606.41,-448.72 604.79,-445.89 603.16,-443.04"/>
<polygon fill="green" stroke="green" points="606.31,-441.5 598.29,-434.58 600.24,-445 606.31,-441.5"/>
<text xml:space="preserve" text-anchor="middle" x="696.75" y="-534.7" font-family="Helvetica,sans-Serif" font-size="9.00">returns</text>
</g>
<!-- api_tbl_create -->
<g id="node17" class="node">
<title>api_tbl_create</title>
<polygon fill="none" stroke="black" points="783.88,-667.38 783.88,-703.38 910.12,-703.38 910.12,-667.38 783.88,-667.38"/>
<text xml:space="preserve" text-anchor="middle" x="847" y="-687.12" font-family="Helvetica,sans-Serif" font-size="10.00">POST /api/dbs/:db/tables</text>
<text xml:space="preserve" text-anchor="middle" x="847" y="-675.88" font-family="Helvetica,sans-Serif" font-size="10.00">Create table</text>
</g>
<!-- api_tbl_create&#45;&gt;table_config -->
<g id="edge13" class="edge">
<title>api_tbl_create&#45;&gt;table_config</title>
<path fill="none" stroke="green" d="M837.57,-666.97C817.75,-631.28 769.14,-548.22 715,-489 689.38,-460.97 657.62,-433.8 629.04,-411.46"/>
<polygon fill="green" stroke="green" points="631.53,-408.96 621.48,-405.62 627.25,-414.5 631.53,-408.96"/>
<text xml:space="preserve" text-anchor="middle" x="824.11" y="-534.7" font-family="Helvetica,sans-Serif" font-size="9.00">creates</text>
</g>
<!-- api_tbl_drop -->
<g id="node18" class="node">
<title>api_tbl_drop</title>
<polygon fill="none" stroke="black" points="928.62,-667.38 928.62,-703.38 1083.38,-703.38 1083.38,-667.38 928.62,-667.38"/>
<text xml:space="preserve" text-anchor="middle" x="1006" y="-687.12" font-family="Helvetica,sans-Serif" font-size="10.00">DELETE /api/dbs/:db/tables/:tbl</text>
<text xml:space="preserve" text-anchor="middle" x="1006" y="-675.88" font-family="Helvetica,sans-Serif" font-size="10.00">Drop table</text>
</g>
<!-- api_tbl_drop&#45;&gt;table_config -->
<g id="edge14" class="edge">
<title>api_tbl_drop&#45;&gt;table_config</title>
<path fill="none" stroke="red" d="M995.4,-667C972.03,-629.9 912.56,-542.02 843,-489 778.47,-439.81 692.67,-403.65 631.17,-381.74"/>
<polygon fill="red" stroke="red" points="632.38,-378.46 621.79,-378.45 630.07,-385.06 632.38,-378.46"/>
<text xml:space="preserve" text-anchor="middle" x="977.09" y="-534.7" font-family="Helvetica,sans-Serif" font-size="9.00">deletes</text>
</g>
<!-- ex_db -->
<g id="node19" class="node">
<title>ex_db</title>
<polygon fill="none" stroke="black" points="1231.88,-656.5 1231.88,-714.25 1352.12,-714.25 1352.12,-656.5 1231.88,-656.5"/>
<text xml:space="preserve" text-anchor="middle" x="1292" y="-700.75" font-family="Helvetica,sans-Serif" font-size="10.00">test_app</text>
<polyline fill="none" stroke="black" points="1231.88,-695 1352.12,-695"/>
<text xml:space="preserve" text-anchor="middle" x="1292" y="-681.5" font-family="Helvetica,sans-Serif" font-size="10.00">UUID: e15f6f24&#45;...</text>
<polyline fill="none" stroke="black" points="1231.88,-675.75 1352.12,-675.75"/>
<text xml:space="preserve" text-anchor="middle" x="1292" y="-662.25" font-family="Helvetica,sans-Serif" font-size="10.00">created_at: 1765243542</text>
</g>
<!-- ex_tbl_users -->
<g id="node20" class="node">
<title>ex_tbl_users</title>
<polygon fill="none" stroke="black" points="1185.5,-499.88 1185.5,-576.88 1282.5,-576.88 1282.5,-499.88 1185.5,-499.88"/>
<text xml:space="preserve" text-anchor="middle" x="1234" y="-563.38" font-family="Helvetica,sans-Serif" font-size="10.00">users</text>
<polyline fill="none" stroke="black" points="1185.5,-557.62 1282.5,-557.62"/>
<text xml:space="preserve" text-anchor="middle" x="1234" y="-544.12" font-family="Helvetica,sans-Serif" font-size="10.00">UUID: cf452f29&#45;...</text>
<polyline fill="none" stroke="black" points="1185.5,-538.38 1282.5,-538.38"/>
<text xml:space="preserve" text-anchor="middle" x="1234" y="-524.88" font-family="Helvetica,sans-Serif" font-size="10.00">primary_key: id</text>
<polyline fill="none" stroke="black" points="1185.5,-519.12 1282.5,-519.12"/>
<text xml:space="preserve" text-anchor="middle" x="1234" y="-505.62" font-family="Helvetica,sans-Serif" font-size="10.00">doc_count: 0</text>
</g>
<!-- ex_db&#45;&gt;ex_tbl_users -->
<g id="edge15" class="edge">
<title>ex_db&#45;&gt;ex_tbl_users</title>
<path fill="none" stroke="black" d="M1280.68,-656.07C1272.91,-636.65 1262.4,-610.38 1253.32,-587.69"/>
<polygon fill="black" stroke="black" points="1256.66,-586.6 1249.7,-578.62 1250.16,-589.2 1256.66,-586.6"/>
<text xml:space="preserve" text-anchor="middle" x="1290.49" y="-629.45" font-family="Helvetica,sans-Serif" font-size="9.00">contains</text>
</g>
<!-- ex_tbl_posts -->
<g id="node21" class="node">
<title>ex_tbl_posts</title>
<polygon fill="none" stroke="black" points="1300.25,-499.88 1300.25,-576.88 1401.75,-576.88 1401.75,-499.88 1300.25,-499.88"/>
<text xml:space="preserve" text-anchor="middle" x="1351" y="-563.38" font-family="Helvetica,sans-Serif" font-size="10.00">posts</text>
<polyline fill="none" stroke="black" points="1300.25,-557.62 1401.75,-557.62"/>
<text xml:space="preserve" text-anchor="middle" x="1351" y="-544.12" font-family="Helvetica,sans-Serif" font-size="10.00">UUID: 7a3b2c1d&#45;...</text>
<polyline fill="none" stroke="black" points="1300.25,-538.38 1401.75,-538.38"/>
<text xml:space="preserve" text-anchor="middle" x="1351" y="-524.88" font-family="Helvetica,sans-Serif" font-size="10.00">primary_key: id</text>
<polyline fill="none" stroke="black" points="1300.25,-519.12 1401.75,-519.12"/>
<text xml:space="preserve" text-anchor="middle" x="1351" y="-505.62" font-family="Helvetica,sans-Serif" font-size="10.00">doc_count: 0</text>
</g>
<!-- ex_db&#45;&gt;ex_tbl_posts -->
<g id="edge16" class="edge">
<title>ex_db&#45;&gt;ex_tbl_posts</title>
<path fill="none" stroke="black" d="M1304.2,-656.48C1306.81,-650.4 1309.52,-644 1312,-638 1318.81,-621.53 1326.04,-603.41 1332.41,-587.25"/>
<polygon fill="black" stroke="black" points="1335.5,-588.95 1335.9,-578.36 1328.99,-586.39 1335.5,-588.95"/>
<text xml:space="preserve" text-anchor="middle" x="1332.52" y="-629.45" font-family="Helvetica,sans-Serif" font-size="9.00">contains</text>
</g>
<!-- ex_doc1 -->
<g id="node22" class="node">
<title>ex_doc1</title>
<polygon fill="none" stroke="black" points="1106.75,-325.5 1106.75,-386.5 1259.25,-386.5 1259.25,-325.5 1106.75,-325.5"/>
<text xml:space="preserve" text-anchor="middle" x="1183" y="-373" font-family="Helvetica,sans-Serif" font-size="10.00">user_123</text>
<polyline fill="none" stroke="black" points="1106.75,-367.25 1259.25,-367.25"/>
<text xml:space="preserve" text-anchor="middle" x="1183" y="-353.75" font-family="Helvetica,sans-Serif" font-size="10.00">{&quot;id&quot;:&quot;user_123&quot;,</text>
<text xml:space="preserve" text-anchor="middle" x="1183" y="-342.5" font-family="Helvetica,sans-Serif" font-size="10.00"> &quot;name&quot;:&quot;Alice&quot;,</text>
<text xml:space="preserve" text-anchor="middle" x="1183" y="-331.25" font-family="Helvetica,sans-Serif" font-size="10.00"> &quot;email&quot;:&quot;alice@example.com&quot;}</text>
</g>
<!-- ex_tbl_users&#45;&gt;ex_doc1 -->
<g id="edge17" class="edge">
<title>ex_tbl_users&#45;&gt;ex_doc1</title>
<path fill="none" stroke="black" d="M1223.31,-499.56C1214.85,-469.66 1203.08,-428 1194.43,-397.44"/>
<polygon fill="black" stroke="black" points="1197.91,-396.85 1191.82,-388.18 1191.17,-398.76 1197.91,-396.85"/>
<text xml:space="preserve" text-anchor="middle" x="1231.82" y="-457.57" font-family="Helvetica,sans-Serif" font-size="9.00">contains</text>
</g>
<!-- ex_doc2 -->
<g id="node23" class="node">
<title>ex_doc2</title>
<polygon fill="none" stroke="black" points="1277,-325.5 1277,-386.5 1425,-386.5 1425,-325.5 1277,-325.5"/>
<text xml:space="preserve" text-anchor="middle" x="1351" y="-373" font-family="Helvetica,sans-Serif" font-size="10.00">user_456</text>
<polyline fill="none" stroke="black" points="1277,-367.25 1425,-367.25"/>
<text xml:space="preserve" text-anchor="middle" x="1351" y="-353.75" font-family="Helvetica,sans-Serif" font-size="10.00">{&quot;id&quot;:&quot;user_456&quot;,</text>
<text xml:space="preserve" text-anchor="middle" x="1351" y="-342.5" font-family="Helvetica,sans-Serif" font-size="10.00"> &quot;name&quot;:&quot;Bob&quot;,</text>
<text xml:space="preserve" text-anchor="middle" x="1351" y="-331.25" font-family="Helvetica,sans-Serif" font-size="10.00"> &quot;email&quot;:&quot;bob@example.com&quot;}</text>
</g>
<!-- ex_tbl_users&#45;&gt;ex_doc2 -->
<g id="edge18" class="edge">
<title>ex_tbl_users&#45;&gt;ex_doc2</title>
<path fill="none" stroke="black" d="M1258.53,-499.56C1278.18,-469.27 1305.66,-426.91 1325.55,-396.24"/>
<polygon fill="black" stroke="black" points="1328.39,-398.29 1330.9,-387.99 1322.52,-394.48 1328.39,-398.29"/>
<text xml:space="preserve" text-anchor="middle" x="1306.24" y="-457.57" font-family="Helvetica,sans-Serif" font-size="9.00">contains</text>
</g>
<!-- leg1 -->
<g id="node24" class="node">
<title>leg1</title>
<polygon fill="none" stroke="blue" points="1456.5,-667.38 1456.5,-703.38 1619.5,-703.38 1619.5,-667.38 1456.5,-667.38"/>
<text xml:space="preserve" text-anchor="middle" x="1538" y="-681.5" font-family="Helvetica,sans-Serif" font-size="10.00" fill="blue">Blue arrows: Ownership hierarchy</text>
</g>
<!-- leg2 -->
<g id="node25" class="node">
<title>leg2</title>
<polygon fill="none" stroke="green" points="1449.38,-520.38 1449.38,-556.38 1626.62,-556.38 1626.62,-520.38 1449.38,-520.38"/>
<text xml:space="preserve" text-anchor="middle" x="1538" y="-534.5" font-family="Helvetica,sans-Serif" font-size="10.00" fill="green">Green arrows: Read/Write operations</text>
</g>
<!-- leg1&#45;&gt;leg2 -->
<!-- leg3 -->
<g id="node26" class="node">
<title>leg3</title>
<polygon fill="none" stroke="red" points="1463.62,-338 1463.62,-374 1612.38,-374 1612.38,-338 1463.62,-338"/>
<text xml:space="preserve" text-anchor="middle" x="1538" y="-352.12" font-family="Helvetica,sans-Serif" font-size="10.00" fill="red">Red arrows: Delete operations</text>
</g>
<!-- leg2&#45;&gt;leg3 -->
<!-- leg4 -->
<g id="node27" class="node">
<title>leg4</title>
<polygon fill="none" stroke="black" stroke-dasharray="5,2" points="1457.25,-175.62 1457.25,-211.62 1618.75,-211.62 1618.75,-175.62 1457.25,-175.62"/>
<text xml:space="preserve" text-anchor="middle" x="1538" y="-189.75" font-family="Helvetica,sans-Serif" font-size="10.00">Dashed arrows: Storage mapping</text>
</g>
<!-- leg3&#45;&gt;leg4 -->
</g>
</svg>
