<?xml version="1.0" encoding="UTF-8" standalone="no"?>
<!DOCTYPE svg PUBLIC "-//W3C//DTD SVG 1.1//EN"
 "http://www.w3.org/Graphics/SVG/1.1/DTD/svg11.dtd">
<!-- Generated by graphviz version 14.0.5 (20251129.0259)
 -->
<!-- Title: RethinkDBSimple Pages: 1 -->
<svg width="488pt" height="351pt"
 viewBox="0.00 0.00 488.00 351.00" xmlns="http://www.w3.org/2000/svg" xmlns:xlink="http://www.w3.org/1999/xlink">
<g id="graph0" class="graph" transform="scale(1 1) rotate(0) translate(4 346.5)">
<title>RethinkDBSimple</title>
<polygon fill="white" stroke="none" points="-4,4 -4,-346.5 483.88,-346.5 483.88,4 -4,4"/>
<text xml:space="preserve" text-anchor="start" x="110.56" y="-326.2" font-family="Times,serif" font-weight="bold" font-size="14.00">RethinkDB Database Hierarchy (Simplified)</text>
<!-- cluster -->
<g id="node1" class="node">
<title>cluster</title>
<polygon fill="lightblue" stroke="black" points="400.5,-318 277.5,-318 273.5,-314 273.5,-282 396.5,-282 400.5,-286 400.5,-318"/>
<polyline fill="none" stroke="black" points="396.5,-314 273.5,-314"/>
<polyline fill="none" stroke="black" points="396.5,-314 396.5,-282"/>
<polyline fill="none" stroke="black" points="396.5,-314 400.5,-318"/>
<text xml:space="preserve" text-anchor="middle" x="337" y="-294.2" font-family="Helvetica,sans-Serif" font-size="14.00">RethinkDB Cluster</text>
</g>
<!-- db1 -->
<g id="node2" class="node">
<title>db1</title>
<polygon fill="lightgreen" stroke="black" points="328.5,-231 195.5,-231 195.5,-193 328.5,-193 328.5,-231"/>
<text xml:space="preserve" text-anchor="middle" x="262" y="-213.7" font-family="Helvetica,sans-Serif" font-size="14.00">Database: test_app</text>
<text xml:space="preserve" text-anchor="middle" x="262" y="-198.7" font-family="Helvetica,sans-Serif" font-size="14.00">UUID: e15f6f24&#45;...</text>
</g>
<!-- cluster&#45;&gt;db1 -->
<g id="edge1" class="edge">
<title>cluster&#45;&gt;db1</title>
<path fill="none" stroke="black" d="M321.82,-281.6C311.36,-269.6 297.25,-253.42 285.36,-239.79"/>
<polygon fill="black" stroke="black" points="288.14,-237.64 278.93,-232.41 282.86,-242.25 288.14,-237.64"/>
<text xml:space="preserve" text-anchor="middle" x="331.34" y="-250.7" font-family="Helvetica,sans-Serif" font-size="14.00">contains</text>
</g>
<!-- db2 -->
<g id="node3" class="node">
<title>db2</title>
<polygon fill="lightgreen" stroke="black" points="479.88,-231 346.12,-231 346.12,-193 479.88,-193 479.88,-231"/>
<text xml:space="preserve" text-anchor="middle" x="413" y="-213.7" font-family="Helvetica,sans-Serif" font-size="14.00">Database: analytics</text>
<text xml:space="preserve" text-anchor="middle" x="413" y="-198.7" font-family="Helvetica,sans-Serif" font-size="14.00">UUID: cbdf31b3&#45;...</text>
</g>
<!-- cluster&#45;&gt;db2 -->
<g id="edge2" class="edge">
<title>cluster&#45;&gt;db2</title>
<path fill="none" stroke="black" d="M352.38,-281.6C362.98,-269.6 377.28,-253.42 389.33,-239.79"/>
<polygon fill="black" stroke="black" points="391.85,-242.21 395.85,-232.4 386.61,-237.58 391.85,-242.21"/>
<text xml:space="preserve" text-anchor="middle" x="404.68" y="-250.7" font-family="Helvetica,sans-Serif" font-size="14.00">contains</text>
</g>
<!-- tbl1 -->
<g id="node4" class="node">
<title>tbl1</title>
<polygon fill="lightyellow" stroke="black" points="180,-142 56,-142 56,-89 180,-89 180,-142"/>
<text xml:space="preserve" text-anchor="middle" x="118" y="-124.7" font-family="Helvetica,sans-Serif" font-size="14.00">Table: users</text>
<text xml:space="preserve" text-anchor="middle" x="118" y="-109.7" font-family="Helvetica,sans-Serif" font-size="14.00">PK: id</text>
<text xml:space="preserve" text-anchor="middle" x="118" y="-94.7" font-family="Helvetica,sans-Serif" font-size="14.00">UUID: cf452f29&#45;...</text>
</g>
<!-- db1&#45;&gt;tbl1 -->
<g id="edge3" class="edge">
<title>db1&#45;&gt;tbl1</title>
<path fill="none" stroke="black" d="M231.89,-192.53C222.95,-186.97 213.16,-180.8 204.25,-175 191.44,-166.67 177.69,-157.46 165.02,-148.87"/>
<polygon fill="black" stroke="black" points="167.06,-146.03 156.83,-143.3 163.13,-151.82 167.06,-146.03"/>
<text xml:space="preserve" text-anchor="middle" x="231.62" y="-161.7" font-family="Helvetica,sans-Serif" font-size="14.00">has table</text>
</g>
<!-- tbl2 -->
<g id="node5" class="node">
<title>tbl2</title>
<polygon fill="lightyellow" stroke="black" points="329.75,-142 198.25,-142 198.25,-89 329.75,-89 329.75,-142"/>
<text xml:space="preserve" text-anchor="middle" x="264" y="-124.7" font-family="Helvetica,sans-Serif" font-size="14.00">Table: posts</text>
<text xml:space="preserve" text-anchor="middle" x="264" y="-109.7" font-family="Helvetica,sans-Serif" font-size="14.00">PK: id</text>
<text xml:space="preserve" text-anchor="middle" x="264" y="-94.7" font-family="Helvetica,sans-Serif" font-size="14.00">UUID: 7a3b2c1d&#45;...</text>
</g>
<!-- db1&#45;&gt;tbl2 -->
<g id="edge4" class="edge">
<title>db1&#45;&gt;tbl2</title>
<path fill="none" stroke="black" d="M262.39,-192.78C262.62,-181.66 262.93,-167.04 263.22,-153.58"/>
<polygon fill="black" stroke="black" points="266.71,-153.75 263.42,-143.68 259.71,-153.6 266.71,-153.75"/>
<text xml:space="preserve" text-anchor="middle" x="290.43" y="-161.7" font-family="Helvetica,sans-Serif" font-size="14.00">has table</text>
</g>
<!-- tbl3 -->
<g id="node6" class="node">
<title>tbl3</title>
<polygon fill="lightyellow" stroke="black" points="477.25,-142 348.75,-142 348.75,-89 477.25,-89 477.25,-142"/>
<text xml:space="preserve" text-anchor="middle" x="413" y="-124.7" font-family="Helvetica,sans-Serif" font-size="14.00">Table: events</text>
<text xml:space="preserve" text-anchor="middle" x="413" y="-109.7" font-family="Helvetica,sans-Serif" font-size="14.00">PK: event_id</text>
<text xml:space="preserve" text-anchor="middle" x="413" y="-94.7" font-family="Helvetica,sans-Serif" font-size="14.00">UUID: 6e84eaf7&#45;...</text>
</g>
<!-- db2&#45;&gt;tbl3 -->
<g id="edge5" class="edge">
<title>db2&#45;&gt;tbl3</title>
<path fill="none" stroke="black" d="M413,-192.78C413,-181.66 413,-167.04 413,-153.58"/>
<polygon fill="black" stroke="black" points="416.5,-153.68 413,-143.68 409.5,-153.68 416.5,-153.68"/>
<text xml:space="preserve" text-anchor="middle" x="440.38" y="-161.7" font-family="Helvetica,sans-Serif" font-size="14.00">has table</text>
</g>
<!-- doc1 -->
<g id="node7" class="node">
<title>doc1</title>
<polygon fill="white" stroke="black" points="82,-38 0,-38 0,0 82,0 82,-38"/>
<text xml:space="preserve" text-anchor="middle" x="41" y="-20.7" font-family="Helvetica,sans-Serif" font-size="14.00">Document:</text>
<text xml:space="preserve" text-anchor="middle" x="41" y="-5.7" font-family="Helvetica,sans-Serif" font-size="14.00">user_123</text>
</g>
<!-- tbl1&#45;&gt;doc1 -->
<g id="edge6" class="edge">
<title>tbl1&#45;&gt;doc1</title>
<path fill="none" stroke="black" d="M96.96,-88.68C86.4,-75.71 73.61,-60.02 62.92,-46.9"/>
<polygon fill="black" stroke="black" points="65.9,-45.02 56.87,-39.48 60.47,-49.44 65.9,-45.02"/>
<text xml:space="preserve" text-anchor="middle" x="100.18" y="-57.7" font-family="Helvetica,sans-Serif" font-size="14.00">stores</text>
</g>
<!-- doc2 -->
<g id="node8" class="node">
<title>doc2</title>
<polygon fill="white" stroke="black" points="182,-38 100,-38 100,0 182,0 182,-38"/>
<text xml:space="preserve" text-anchor="middle" x="141" y="-20.7" font-family="Helvetica,sans-Serif" font-size="14.00">Document:</text>
<text xml:space="preserve" text-anchor="middle" x="141" y="-5.7" font-family="Helvetica,sans-Serif" font-size="14.00">user_456</text>
</g>
<!-- tbl1&#45;&gt;doc2 -->
<g id="edge7" class="edge">
<title>tbl1&#45;&gt;doc2</title>
<path fill="none" stroke="black" d="M124.28,-88.68C127.26,-76.46 130.82,-61.82 133.89,-49.2"/>
<polygon fill="black" stroke="black" points="137.22,-50.32 136.19,-39.78 130.42,-48.66 137.22,-50.32"/>
<text xml:space="preserve" text-anchor="middle" x="150.61" y="-57.7" font-family="Helvetica,sans-Serif" font-size="14.00">stores</text>
</g>
<!-- doc3 -->
<g id="node9" class="node">
<title>doc3</title>
<polygon fill="white" stroke="black" points="305,-38 223,-38 223,0 305,0 305,-38"/>
<text xml:space="preserve" text-anchor="middle" x="264" y="-20.7" font-family="Helvetica,sans-Serif" font-size="14.00">Document:</text>
<text xml:space="preserve" text-anchor="middle" x="264" y="-5.7" font-family="Helvetica,sans-Serif" font-size="14.00">post_001</text>
</g>
<!-- tbl2&#45;&gt;doc3 -->
<g id="edge8" class="edge">
<title>tbl2&#45;&gt;doc3</title>
<path fill="none" stroke="black" d="M264,-88.68C264,-76.58 264,-62.12 264,-49.59"/>
<polygon fill="black" stroke="black" points="267.5,-49.82 264,-39.82 260.5,-49.82 267.5,-49.82"/>
<text xml:space="preserve" text-anchor="middle" x="282.38" y="-57.7" font-family="Helvetica,sans-Serif" font-size="14.00">stores</text>
</g>
<!-- doc4 -->
<g id="node10" class="node">
<title>doc4</title>
<polygon fill="white" stroke="black" points="467.5,-38 358.5,-38 358.5,0 467.5,0 467.5,-38"/>
<text xml:space="preserve" text-anchor="middle" x="413" y="-20.7" font-family="Helvetica,sans-Serif" font-size="14.00">Document:</text>
<text xml:space="preserve" text-anchor="middle" x="413" y="-5.7" font-family="Helvetica,sans-Serif" font-size="14.00">event_2023_01</text>
</g>
<!-- tbl3&#45;&gt;doc4 -->
<g id="edge9" class="edge">
<title>tbl3&#45;&gt;doc4</title>
<path fill="none" stroke="black" d="M413,-88.68C413,-76.58 413,-62.12 413,-49.59"/>
<polygon fill="black" stroke="black" points="416.5,-49.82 413,-39.82 409.5,-49.82 416.5,-49.82"/>
<text xml:space="preserve" text-anchor="middle" x="431.38" y="-57.7" font-family="Helvetica,sans-Serif" font-size="14.00">stores</text>
</g>
</g>
</svg>
