<?xml version="1.0" encoding="UTF-8" standalone="no"?>
<!DOCTYPE svg PUBLIC "-//W3C//DTD SVG 1.1//EN"
 "http://www.w3.org/Graphics/SVG/1.1/DTD/svg11.dtd">
<!-- Generated by graphviz version 14.0.5 (20251129.0259)
 -->
<!-- Title: StorageLayout Pages: 1 -->
<svg width="828pt" height="487pt"
 viewBox="0.00 0.00 828.00 487.00" xmlns="http://www.w3.org/2000/svg" xmlns:xlink="http://www.w3.org/1999/xlink">
<g id="graph0" class="graph" transform="scale(1 1) rotate(0) translate(4 482.5)">
<title>StorageLayout</title>
<polygon fill="white" stroke="none" points="-4,4 -4,-482.5 823.5,-482.5 823.5,4 -4,4"/>
<text xml:space="preserve" text-anchor="start" x="294.62" y="-462.2" font-family="Times,serif" font-weight="bold" font-size="14.00">RethinkDB Sled B&#45;Tree Storage Layout</text>
<g id="clust1" class="cluster">
<title>cluster_keys</title>
<polygon fill="lightgrey" stroke="lightgrey" points="250.75,-8 250.75,-391 464,-391 464,-8 250.75,-8"/>
<text xml:space="preserve" text-anchor="middle" x="357.38" y="-373.7" font-family="Times,serif" font-size="14.00">Key Prefixes (Namespace Isolation)</text>
</g>
<g id="clust2" class="cluster">
<title>cluster_examples</title>
<polygon fill="white" stroke="white" points="499,-27 499,-374 811.5,-374 811.5,-27 499,-27"/>
<text xml:space="preserve" text-anchor="middle" x="655.25" y="-356.7" font-family="Times,serif" font-size="14.00">Example Keys</text>
</g>
<g id="clust3" class="cluster">
<title>cluster_operations</title>
<polygon fill="lightcyan" stroke="lightcyan" points="8,-69 8,-446 229.75,-446 229.75,-69 8,-69"/>
<text xml:space="preserve" text-anchor="middle" x="118.88" y="-428.7" font-family="Times,serif" font-size="14.00">Common Operations</text>
</g>
<!-- key_db_name -->
<g id="node1" class="node">
<title>key_db_name</title>
<polygon fill="lightblue" stroke="black" points="270.5,-316.5 270.5,-357.5 443.25,-357.5 443.25,-316.5 270.5,-316.5"/>
<text xml:space="preserve" text-anchor="middle" x="356.88" y="-340.2" font-family="Courier,monospace" font-size="14.00">databases by name</text>
<text xml:space="preserve" text-anchor="middle" x="356.88" y="-323.7" font-family="Courier,monospace" font-size="14.00">DatabaseConfig JSON</text>
</g>
<!-- ex1 -->
<g id="node7" class="node">
<title>ex1</title>
<polygon fill="none" stroke="black" points="752.12,-341 552.38,-341 552.38,-305 758.12,-305 758.12,-335 752.12,-341"/>
<polyline fill="none" stroke="black" points="752.12,-341 752.12,-335"/>
<polyline fill="none" stroke="black" points="758.12,-335 752.12,-335"/>
<text xml:space="preserve" text-anchor="middle" x="655.25" y="-317.95" font-family="Courier,monospace" font-size="14.00">meta:databases:test_app</text>
</g>
<!-- key_db_name&#45;&gt;ex1 -->
<g id="edge1" class="edge">
<title>key_db_name&#45;&gt;ex1</title>
<path fill="none" stroke="black" stroke-dasharray="5,2" d="M443.6,-332.95C473.88,-331.52 508.42,-329.89 540.64,-328.37"/>
<polygon fill="black" stroke="black" points="540.6,-331.87 550.42,-327.9 540.27,-324.88 540.6,-331.87"/>
<text xml:space="preserve" text-anchor="middle" x="481.5" y="-332.45" font-family="Helvetica,sans-Serif" font-size="9.00">e.g.</text>
</g>
<!-- key_db_id -->
<g id="node2" class="node">
<title>key_db_id</title>
<polygon fill="lightblue" stroke="black" points="266.38,-256.5 266.38,-297.5 447.38,-297.5 447.38,-256.5 266.38,-256.5"/>
<text xml:space="preserve" text-anchor="middle" x="356.88" y="-280.2" font-family="Courier,monospace" font-size="14.00">database IDs</text>
<text xml:space="preserve" text-anchor="middle" x="356.88" y="-263.7" font-family="Courier,monospace" font-size="14.00">database_name String</text>
</g>
<!-- ex2 -->
<g id="node8" class="node">
<title>ex2</title>
<polygon fill="none" stroke="black" points="764.5,-287 540,-287 540,-251 770.5,-251 770.5,-281 764.5,-287"/>
<polyline fill="none" stroke="black" points="764.5,-287 764.5,-281"/>
<polyline fill="none" stroke="black" points="770.5,-281 764.5,-281"/>
<text xml:space="preserve" text-anchor="middle" x="655.25" y="-263.95" font-family="Courier,monospace" font-size="14.00">meta:database_ids:e15f6f24</text>
</g>
<!-- key_db_id&#45;&gt;ex2 -->
<g id="edge2" class="edge">
<title>key_db_id&#45;&gt;ex2</title>
<path fill="none" stroke="black" stroke-dasharray="5,2" d="M447.6,-274.58C473.06,-273.89 501.25,-273.13 528.43,-272.4"/>
<polygon fill="black" stroke="black" points="528.17,-275.9 538.07,-272.14 527.98,-268.91 528.17,-275.9"/>
<text xml:space="preserve" text-anchor="middle" x="481.5" y="-274.92" font-family="Helvetica,sans-Serif" font-size="9.00">e.g.</text>
</g>
<!-- key_tbl_name -->
<g id="node3" class="node">
<title>key_tbl_name</title>
<polygon fill="lightgreen" stroke="black" points="282.88,-196.5 282.88,-237.5 430.88,-237.5 430.88,-196.5 282.88,-196.5"/>
<text xml:space="preserve" text-anchor="middle" x="356.88" y="-220.2" font-family="Courier,monospace" font-size="14.00">tables by name</text>
<text xml:space="preserve" text-anchor="middle" x="356.88" y="-203.7" font-family="Courier,monospace" font-size="14.00">TableConfig JSON</text>
</g>
<!-- ex3 -->
<g id="node9" class="node">
<title>ex3</title>
<polygon fill="none" stroke="black" points="764.5,-233 540,-233 540,-197 770.5,-197 770.5,-227 764.5,-233"/>
<polyline fill="none" stroke="black" points="764.5,-233 764.5,-227"/>
<polyline fill="none" stroke="black" points="770.5,-227 764.5,-227"/>
<text xml:space="preserve" text-anchor="middle" x="655.25" y="-209.95" font-family="Courier,monospace" font-size="14.00">meta:tables:test_app.users</text>
</g>
<!-- key_tbl_name&#45;&gt;ex3 -->
<g id="edge3" class="edge">
<title>key_tbl_name&#45;&gt;ex3</title>
<path fill="none" stroke="black" stroke-dasharray="5,2" d="M431.14,-216.51C460.55,-216.31 495.31,-216.07 528.53,-215.85"/>
<polygon fill="black" stroke="black" points="528.24,-219.35 538.21,-215.78 528.19,-212.35 528.24,-219.35"/>
<text xml:space="preserve" text-anchor="middle" x="481.5" y="-217.38" font-family="Helvetica,sans-Serif" font-size="9.00">e.g.</text>
</g>
<!-- key_tbl_id -->
<g id="node4" class="node">
<title>key_tbl_id</title>
<polygon fill="lightgreen" stroke="black" points="287,-136.5 287,-177.5 426.75,-177.5 426.75,-136.5 287,-136.5"/>
<text xml:space="preserve" text-anchor="middle" x="356.88" y="-160.2" font-family="Courier,monospace" font-size="14.00">table IDs</text>
<text xml:space="preserve" text-anchor="middle" x="356.88" y="-143.7" font-family="Courier,monospace" font-size="14.00">db.table String</text>
</g>
<!-- ex4 -->
<g id="node10" class="node">
<title>ex4</title>
<polygon fill="none" stroke="black" points="752.12,-179 552.38,-179 552.38,-143 758.12,-143 758.12,-173 752.12,-179"/>
<polyline fill="none" stroke="black" points="752.12,-179 752.12,-173"/>
<polyline fill="none" stroke="black" points="758.12,-173 752.12,-173"/>
<text xml:space="preserve" text-anchor="middle" x="655.25" y="-155.95" font-family="Courier,monospace" font-size="14.00">meta:table_ids:cf452f29</text>
</g>
<!-- key_tbl_id&#45;&gt;ex4 -->
<g id="edge4" class="edge">
<title>key_tbl_id&#45;&gt;ex4</title>
<path fill="none" stroke="black" stroke-dasharray="5,2" d="M426.99,-157.93C460.85,-158.39 502.5,-158.95 540.85,-159.47"/>
<polygon fill="black" stroke="black" points="540.54,-162.97 550.59,-159.6 540.64,-155.97 540.54,-162.97"/>
<text xml:space="preserve" text-anchor="middle" x="481.5" y="-159.96" font-family="Helvetica,sans-Serif" font-size="9.00">e.g.</text>
</g>
<!-- key_docs -->
<g id="node5" class="node">
<title>key_docs</title>
<polygon fill="lightyellow" stroke="black" points="295.25,-76.5 295.25,-117.5 418.5,-117.5 418.5,-76.5 295.25,-76.5"/>
<text xml:space="preserve" text-anchor="middle" x="356.88" y="-100.2" font-family="Courier,monospace" font-size="14.00">documents</text>
<text xml:space="preserve" text-anchor="middle" x="356.88" y="-83.7" font-family="Courier,monospace" font-size="14.00">Document JSON</text>
</g>
<!-- ex5 -->
<g id="node11" class="node">
<title>ex5</title>
<polygon fill="none" stroke="black" points="789.25,-125 515.25,-125 515.25,-89 795.25,-89 795.25,-119 789.25,-125"/>
<polyline fill="none" stroke="black" points="789.25,-125 789.25,-119"/>
<polyline fill="none" stroke="black" points="795.25,-119 789.25,-119"/>
<text xml:space="preserve" text-anchor="middle" x="655.25" y="-101.95" font-family="Courier,monospace" font-size="14.00">db:e15f:table:cf45:docs:user_123</text>
</g>
<!-- key_docs&#45;&gt;ex5 -->
<g id="edge5" class="edge">
<title>key_docs&#45;&gt;ex5</title>
<path fill="none" stroke="black" stroke-dasharray="5,2" d="M418.92,-99.06C443.72,-99.9 473.56,-100.9 503.53,-101.91"/>
<polygon fill="black" stroke="black" points="503.39,-105.41 513.51,-102.25 503.63,-98.42 503.39,-105.41"/>
<text xml:space="preserve" text-anchor="middle" x="481.5" y="-102.6" font-family="Helvetica,sans-Serif" font-size="9.00">e.g.</text>
</g>
<!-- key_idx -->
<g id="node6" class="node">
<title>key_idx</title>
<polygon fill="orange" stroke="black" points="320,-16.5 320,-57.5 393.75,-57.5 393.75,-16.5 320,-16.5"/>
<text xml:space="preserve" text-anchor="middle" x="356.88" y="-40.2" font-family="Courier,monospace" font-size="14.00">indexes</text>
<text xml:space="preserve" text-anchor="middle" x="356.88" y="-23.7" font-family="Courier,monospace" font-size="14.00">value</text>
</g>
<!-- ex6 -->
<g id="node12" class="node">
<title>ex6</title>
<polygon fill="none" stroke="black" points="797.5,-71 507,-71 507,-35 803.5,-35 803.5,-65 797.5,-71"/>
<polyline fill="none" stroke="black" points="797.5,-71 797.5,-65"/>
<polyline fill="none" stroke="black" points="803.5,-65 797.5,-65"/>
<text xml:space="preserve" text-anchor="middle" x="655.25" y="-47.95" font-family="Courier,monospace" font-size="14.00">db:e15f:table:cf45:idx:email:alice</text>
</g>
<!-- key_idx&#45;&gt;ex6 -->
<g id="edge6" class="edge">
<title>key_idx&#45;&gt;ex6</title>
<path fill="none" stroke="black" stroke-dasharray="5,2" d="M394.22,-38.96C420.24,-40.37 457.27,-42.37 495.26,-44.42"/>
<polygon fill="black" stroke="black" points="494.84,-47.9 505.01,-44.94 495.22,-40.91 494.84,-47.9"/>
<text xml:space="preserve" text-anchor="middle" x="481.5" y="-45.24" font-family="Helvetica,sans-Serif" font-size="9.00">e.g.</text>
</g>
<!-- op1 -->
<g id="node13" class="node">
<title>op1</title>
<polygon fill="none" stroke="black" points="184.62,-413.5 53.12,-413.5 53.12,-372.5 184.62,-372.5 184.62,-413.5"/>
<text xml:space="preserve" text-anchor="middle" x="118.88" y="-396.2" font-family="Courier,monospace" font-size="14.00">List databases</text>
<text xml:space="preserve" text-anchor="middle" x="118.88" y="-379.7" font-family="Courier,monospace" font-size="14.00">scan_prefix</text>
</g>
<!-- op1&#45;&gt;key_db_name -->
<g id="edge7" class="edge">
<title>op1&#45;&gt;key_db_name</title>
<path fill="none" stroke="blue" stroke-dasharray="1,5" d="M184.99,-377.55C207.93,-372.11 234.22,-365.87 259.2,-359.94"/>
<polygon fill="blue" stroke="blue" points="259.8,-363.4 268.72,-357.68 258.18,-356.58 259.8,-363.4"/>
</g>
<!-- op2 -->
<g id="node14" class="node">
<title>op2</title>
<polygon fill="none" stroke="black" points="209.38,-354.5 28.38,-354.5 28.38,-313.5 209.38,-313.5 209.38,-354.5"/>
<text xml:space="preserve" text-anchor="middle" x="118.88" y="-337.2" font-family="Courier,monospace" font-size="14.00">Get database by name</text>
<text xml:space="preserve" text-anchor="middle" x="118.88" y="-320.7" font-family="Courier,monospace" font-size="14.00">get by key</text>
</g>
<!-- op2&#45;&gt;key_db_name -->
<g id="edge8" class="edge">
<title>op2&#45;&gt;key_db_name</title>
<path fill="none" stroke="blue" stroke-dasharray="1,5" d="M209.77,-335.14C225.86,-335.35 242.68,-335.56 258.96,-335.77"/>
<polygon fill="blue" stroke="blue" points="258.56,-339.26 268.61,-335.89 258.65,-332.26 258.56,-339.26"/>
</g>
<!-- op3 -->
<g id="node15" class="node">
<title>op3</title>
<polygon fill="none" stroke="black" points="201.12,-295.5 36.62,-295.5 36.62,-254.5 201.12,-254.5 201.12,-295.5"/>
<text xml:space="preserve" text-anchor="middle" x="118.88" y="-278.2" font-family="Courier,monospace" font-size="14.00">Get database by ID</text>
<text xml:space="preserve" text-anchor="middle" x="118.88" y="-261.7" font-family="Courier,monospace" font-size="14.00">reverse lookup</text>
</g>
<!-- op3&#45;&gt;key_db_id -->
<g id="edge9" class="edge">
<title>op3&#45;&gt;key_db_id</title>
<path fill="none" stroke="blue" stroke-dasharray="1,5" d="M201.42,-275.69C218.66,-275.84 237.06,-275.99 254.92,-276.14"/>
<polygon fill="blue" stroke="blue" points="254.71,-279.64 264.74,-276.23 254.77,-272.64 254.71,-279.64"/>
</g>
<!-- op4 -->
<g id="node16" class="node">
<title>op4</title>
<polygon fill="none" stroke="black" points="221.75,-236.5 16,-236.5 16,-195.5 221.75,-195.5 221.75,-236.5"/>
<text xml:space="preserve" text-anchor="middle" x="118.88" y="-219.2" font-family="Courier,monospace" font-size="14.00">List tables in database</text>
<text xml:space="preserve" text-anchor="middle" x="118.88" y="-202.7" font-family="Courier,monospace" font-size="14.00">scan_prefix</text>
</g>
<!-- op4&#45;&gt;key_tbl_name -->
<g id="edge10" class="edge">
<title>op4&#45;&gt;key_tbl_name</title>
<path fill="none" stroke="blue" stroke-dasharray="1,5" d="M222.02,-216.43C238.36,-216.5 255.11,-216.57 270.99,-216.64"/>
<polygon fill="blue" stroke="blue" points="270.85,-220.14 280.87,-216.68 270.88,-213.14 270.85,-220.14"/>
</g>
<!-- op5 -->
<g id="node17" class="node">
<title>op5</title>
<polygon fill="none" stroke="black" points="176.38,-177.5 61.38,-177.5 61.38,-136.5 176.38,-136.5 176.38,-177.5"/>
<text xml:space="preserve" text-anchor="middle" x="118.88" y="-160.2" font-family="Courier,monospace" font-size="14.00">Get document</text>
<text xml:space="preserve" text-anchor="middle" x="118.88" y="-143.7" font-family="Courier,monospace" font-size="14.00">get by key</text>
</g>
<!-- op5&#45;&gt;key_docs -->
<g id="edge11" class="edge">
<title>op5&#45;&gt;key_docs</title>
<path fill="none" stroke="blue" stroke-dasharray="1,5" d="M176.7,-142.55C208.95,-134.35 249.62,-124.01 284.05,-115.26"/>
<polygon fill="blue" stroke="blue" points="284.7,-118.71 293.53,-112.85 282.98,-111.92 284.7,-118.71"/>
</g>
<!-- op6 -->
<g id="node18" class="node">
<title>op6</title>
<polygon fill="none" stroke="black" points="188.75,-118.5 49,-118.5 49,-77.5 188.75,-77.5 188.75,-118.5"/>
<text xml:space="preserve" text-anchor="middle" x="118.88" y="-101.2" font-family="Courier,monospace" font-size="14.00">Count documents</text>
<text xml:space="preserve" text-anchor="middle" x="118.88" y="-84.7" font-family="Courier,monospace" font-size="14.00">count scan</text>
</g>
<!-- op6&#45;&gt;key_docs -->
<g id="edge12" class="edge">
<title>op6&#45;&gt;key_docs</title>
<path fill="none" stroke="blue" stroke-dasharray="1,5" d="M189.09,-97.71C218.88,-97.58 253.7,-97.43 283.8,-97.31"/>
<polygon fill="blue" stroke="blue" points="283.59,-100.81 293.57,-97.26 283.56,-93.81 283.59,-100.81"/>
</g>
</g>
</svg>
